<?xml version="1.0" standalone="no"?>
<!DOCTYPE svg PUBLIC "-//W3C//DTD SVG 20010904//EN"
 "http://www.w3.org/TR/2001/REC-SVG-20010904/DTD/svg10.dtd">
<svg version="1.0" xmlns="http://www.w3.org/2000/svg"
 width="512.000000pt" height="512.000000pt" viewBox="0 0 512.000000 512.000000"
 preserveAspectRatio="xMidYMid meet">

<g transform="translate(0.000000,512.000000) scale(0.100000,-0.100000)"
fill="#000000" stroke="none">
<path d="M2365 5114 c-362 -37 -633 -112 -930 -258 -273 -134 -479 -280 -690
-491 -499 -496 -768 -1180 -742 -1890 7 -200 28 -347 77 -541 50 -196 94 -313
190 -509 133 -272 279 -475 495 -690 206 -206 392 -338 660 -470 257 -127 496
-201 780 -241 158 -23 530 -26 670 -6 297 42 552 119 802 242 262 128 475 281
683 490 209 208 356 413 489 681 362 726 360 1533 -5 2268 -374 754 -1073
1267 -1897 1392 -127 19 -482 33 -582 23z m115 -819 l0 -655 -59 0 c-146 0
-441 55 -619 116 -144 49 -272 106 -272 121 0 27 90 244 149 361 172 336 395
573 626 664 51 20 140 46 163 47 9 1 12 -136 12 -654z m305 617 c247 -87 469
-315 652 -667 60 -118 153 -339 153 -368 0 -14 -82 -52 -231 -107 -176 -65
-505 -130 -660 -130 l-59 0 0 655 0 656 38 -7 c20 -4 69 -18 107 -32z m-925
-139 c-166 -174 -334 -449 -440 -723 -18 -47 -37 -89 -41 -94 -15 -17 -282
167 -413 286 l-58 53 103 89 c187 159 442 315 651 397 65 25 278 96 297 99 2
0 -43 -48 -99 -107z m1440 65 c279 -89 560 -245 802 -448 54 -44 100 -85 103
-90 17 -27 -443 -368 -465 -343 -4 4 -27 58 -50 118 -107 268 -265 525 -432
700 -73 77 -96 106 -78 100 14 -4 68 -21 120 -37z m-2469 -694 c65 -70 315
-255 460 -340 l36 -21 -38 -149 c-68 -263 -112 -562 -125 -851 l-7 -143 -494
0 -493 0 0 49 c0 75 28 272 56 401 78 348 257 712 489 994 39 47 75 85 81 86
6 0 21 -12 35 -26z m3574 -60 c234 -286 411 -646 489 -994 28 -129 56 -326 56
-401 l0 -49 -495 0 -495 0 0 78 c0 250 -67 712 -140 968 -11 38 -20 76 -20 85
0 9 40 40 96 75 113 70 275 190 359 268 33 30 65 55 70 55 6 0 42 -38 80 -85z
m-2538 -519 c163 -45 309 -72 479 -87 l134 -11 0 -414 0 -413 -580 0 -581 0 6
103 c20 346 49 554 116 838 l30 126 134 -54 c73 -29 191 -69 262 -88z m1828
-50 c51 -227 85 -492 99 -762 l6 -113 -580 0 -580 0 0 413 0 414 134 11 c283
26 548 91 792 196 l79 33 12 -40 c7 -23 24 -91 38 -152z m-2535 -1108 c0 -251
61 -679 135 -953 14 -51 25 -98 25 -106 0 -8 -43 -41 -96 -74 -116 -72 -260
-178 -355 -263 l-70 -63 -31 28 c-45 44 -197 248 -255 344 -195 326 -316 703
-340 1061 l-6 99 496 0 497 0 0 -73z m1320 -340 l0 -414 -134 -11 c-261 -24
-507 -82 -741 -175 l-134 -54 -30 126 c-67 284 -96 492 -116 839 l-6 102 581
0 580 0 0 -413z m1315 311 c-20 -347 -49 -555 -116 -840 l-30 -126 -107 45
c-243 102 -527 168 -809 189 l-93 7 0 413 0 414 580 0 581 0 -6 -102z m1152 3
c-31 -464 -228 -960 -524 -1323 -103 -124 -90 -121 -175 -45 -98 87 -235 189
-352 261 -56 35 -96 66 -96 75 0 9 9 47 20 85 70 245 123 595 137 899 l6 147
495 0 495 0 -6 -99z m-2467 -1556 l0 -656 -37 7 c-21 4 -68 17 -104 30 -253
90 -474 316 -655 669 -63 123 -154 339 -154 368 0 28 236 118 450 171 160 40
316 63 428 65 l72 1 0 -655z m397 640 c135 -17 369 -73 482 -115 149 -55 231
-93 231 -107 0 -25 -85 -234 -140 -342 -142 -283 -307 -485 -499 -612 -72 -47
-199 -100 -273 -113 l-38 -7 0 656 0 655 59 0 c33 0 113 -7 178 -15z m-1451
-410 c125 -310 263 -533 448 -722 49 -51 87 -93 83 -93 -4 0 -57 16 -118 36
-232 75 -424 169 -624 305 -92 62 -287 217 -300 239 -15 24 424 356 459 346 4
-1 28 -51 52 -111z m2450 36 c107 -71 290 -215 322 -254 11 -13 -3 -28 -90
-102 -253 -213 -581 -390 -882 -475 l-68 -19 89 92 c200 207 340 442 484 815
5 12 12 22 17 22 5 0 63 -36 128 -79z"/>
</g>
</svg>
